<?xml version="1.0" encoding="UTF-8" standalone="no"?>
<svg
   xmlns:dc="http://purl.org/dc/elements/1.1/"
   xmlns:cc="http://creativecommons.org/ns#"
   xmlns:rdf="http://www.w3.org/1999/02/22-rdf-syntax-ns#"
   xmlns:svg="http://www.w3.org/2000/svg"
   xmlns="http://www.w3.org/2000/svg"
   xmlns:sodipodi="http://sodipodi.sourceforge.net/DTD/sodipodi-0.dtd"
   xmlns:inkscape="http://www.inkscape.org/namespaces/inkscape"
   viewBox="0 0 512 512"
   style="height: 512px; width: 512px;"
   version="1.1"
   id="svg8"
   sodipodi:docname="beanstalk2.svg"
   inkscape:version="0.92.2 (5c3e80d, 2017-08-06)">
  <metadata
     id="metadata14">
    <rdf:RDF>
      <cc:Work
         rdf:about="">
        <dc:format>image/svg+xml</dc:format>
        <dc:type
           rdf:resource="http://purl.org/dc/dcmitype/StillImage" />
        <dc:title></dc:title>
      </cc:Work>
    </rdf:RDF>
  </metadata>
  <defs
     id="defs12" />
  <sodipodi:namedview
     pagecolor="#ffffff"
     bordercolor="#666666"
     borderopacity="1"
     objecttolerance="10"
     gridtolerance="10"
     guidetolerance="10"
     inkscape:pageopacity="0"
     inkscape:pageshadow="2"
     inkscape:window-width="1920"
     inkscape:window-height="970"
     id="namedview10"
     showgrid="false"
     inkscape:zoom="0.4609375"
     inkscape:cx="256"
     inkscape:cy="256"
     inkscape:window-x="-12"
     inkscape:window-y="-12"
     inkscape:window-maximized="1"
     inkscape:current-layer="svg8" />
  <path
     d="M0 0h512v512H0z"
     fill="#000"
     fill-opacity="1"
     id="path2" />
  <g
     class=""
     transform="matrix(0.42072048,0,0,1,13.357117,8.6779661)"
     id="g6">
    <path
       d="m 277.625,18.28 -0.03,0.19 c 43.815,5.928 65.818,46.853 56.405,83.093 -2.896,4.01 -5.93,7.953 -9.125,11.812 -3.104,3.75 -6.334,7.45 -9.688,11.094 6.68,-0.152 13.668,0.15 20.875,0.624 9.283,0.61 19.004,1.59 28.844,2.562 26.745,-9.698 50.2,-28.826 64.063,-49.937 13.548,-20.635 17.76,-41.997 10,-59.314 h -72.44 c -1.88,18.198 -6.547,34.794 -13.405,50.188 -3.814,-19.43 -14.214,-37.48 -30,-50.313 h -45.5 z m 181.25,0.126 c 6.692,22.627 -0.026,47.854 -14.28,69.563 -10.697,16.286 -25.69,31.1 -43.47,42.5 l 0.875,0.03 c 21.978,0.764 42.687,-1.078 58.813,-8.656 15.16,-7.125 26.88,-18.75 33.875,-40.656 V 18.406 Z M 196.53,61.47 c -1.478,-0.006 -2.935,0.045 -4.374,0.155 -20.14,1.544 -35.922,13.995 -41.47,30.25 -6.338,18.577 2.098,41.598 26.19,53.97 l 8.53,-16.626 c -17.98,-9.234 -20.494,-21.165 -17.03,-31.314 3.462,-10.15 14.346,-18.986 31.155,-17.625 22.357,1.813 37.36,13.07 45.064,32.407 7.483,18.79 7.26,46.055 -5.156,78.75 -2.05,1.637 -4.052,3.255 -6.125,4.907 -6.142,4.893 -12.406,9.9 -18.72,14.97 5.213,-0.747 10.338,-1.144 15.376,-1.22 1.482,-0.023 2.968,-0.028 4.436,0 11.748,0.222 23.045,2.02 34,4.437 37.61,8.3 71.348,23.35 116.094,15.157 22.666,-5.32 41.84,-16.25 58.22,-31.125 22.16,-20.127 38.942,-47.686 50.56,-77.812 -7.16,7.816 -15.474,13.776 -24.53,18.03 -20.514,9.64 -44.072,11.188 -67.406,10.376 -11.56,-0.402 -23.12,-1.424 -34.25,-2.5 -0.312,0.102 -0.625,0.213 -0.938,0.313 l -0.125,-0.407 c -10.95,-1.065 -21.484,-2.174 -31.186,-2.813 -19.856,-1.308 -35.957,-0.013 -44.063,4.875 l -0.03,-0.063 c -8.127,7.4 -16.694,14.732 -25.594,22.094 5.29,-24.71 4.016,-46.79 -3.187,-64.875 -10.062,-25.258 -32.55,-41.824 -60.94,-44.124 -1.518,-0.123 -3.02,-0.183 -4.5,-0.187 z m 33.845,167.28 c -8.852,0.132 -17.864,1.37 -27.344,4.188 -10.568,3.14 -21.832,8.313 -34.06,16.343 -12.443,10.887 -24.955,22.415 -37.376,34.75 0.008,-2.096 -0.117,-4.168 -0.344,-6.186 -1.712,-15.185 -10.186,-27.355 -21.188,-35.063 -11,-7.707 -24.638,-11.676 -37.968,-11.186 -13.33,0.49 -26.343,5.43 -36.03,15.47 -18.76,19.434 -19.104,43.565 -6.44,57.186 12.666,13.62 36.54,14.862 55.345,-1.875 l -12.407,-13.97 c -13.2,11.75 -23.73,9.063 -29.25,3.126 -5.52,-5.936 -7.83,-16.975 6.187,-31.5 11.472,-11.885 35.21,-12.22 49.844,-1.967 7.317,5.126 12.254,12.21 13.344,21.875 1.004,8.913 -1.393,20.632 -10.5,35.218 -3.974,4.497 -7.923,9.098 -11.844,13.813 22.05,-8.594 43.864,-9.63 66.22,-10.533 42.668,-1.724 88.234,-2.342 152.28,-48.593 13.46,-3.538 24.74,-3.17 32.937,-0.313 10.874,3.792 16.97,11.038 18.533,22.783 1.088,8.183 -2.835,12.686 -7.282,14.312 -4.445,1.626 -9.816,1.293 -15.217,-7.875 l -16.094,9.5 c 8.898,15.105 25.03,20.576 37.717,15.938 12.687,-4.64 21.516,-18.457 19.407,-34.313 -2.384,-17.922 -14.236,-32.156 -30.906,-37.97 -4.707,-1.64 -9.77,-2.682 -15.094,-3.124 -0.02,0 -0.042,0.003 -0.063,0 -25.17,-3.576 -47.403,-11.364 -68.405,-16 -11.5,-2.537 -22.618,-4.2 -34,-4.03 z m 41.438,84.625 c -23.824,11.1 -45.46,16.75 -65.25,19.78 -8.886,26.954 -37.427,47.482 -70.47,61.626 -33.138,14.187 -71.51,21.632 -103.437,17.19 -4.55,7.932 -9.002,16.1 -13.343,24.56 v 57.25 H 90.28 c 53.69,-26.358 106.106,-70.88 143.69,-124.374 11.174,-20.2 23.99,-38.768 37.843,-56.03 z m -87.157,22.28 c -9.562,0.76 -18.652,1.12 -27.344,1.47 -23.177,0.937 -43.168,2.06 -62.562,10.188 -12.78,5.356 -25.608,13.84 -39.156,27.875 -4.182,6.178 -8.318,12.53 -12.375,19.062 25.817,1.616 58.038,-4.857 85.53,-16.625 25.574,-10.947 46.53,-26.7 56.03,-41.97 -0.04,0.005 -0.083,-0.002 -0.124,0 z M 333.75,364.5 c -1.094,-0.003 -2.182,0.024 -3.28,0.063 -17.584,0.616 -35.97,6.193 -54.126,15.093 -24.357,11.94 -48.364,29.917 -68.906,51.188 0.05,-0.157 0.106,-0.313 0.156,-0.47 -23.996,24.686 -50.768,46.182 -78.72,63.407 h 65.032 c 0.874,-7.292 1.98,-14.4 3.25,-21.374 22.468,-31.78 55.39,-60.272 87.406,-75.97 16.41,-8.044 32.53,-12.694 46.563,-13.186 14.034,-0.492 25.78,2.896 35.313,11 15.122,12.856 14.897,31.182 6.312,44.5 -8.585,13.318 -24.29,21.298 -46.78,10 l -8.376,16.72 c 29.54,14.837 57.8,3.69 70.875,-16.595 13.075,-20.284 12.206,-50.05 -9.94,-68.875 -12.62,-10.73 -28.374,-15.46 -44.78,-15.5 z"
       id="path4"
       inkscape:connector-curvature="0"
       style="fill:#ffffff;fill-opacity:1" />
  </g>
</svg>
