<svg width="432" height="432" xmlns="http://www.w3.org/2000/svg">
 <style type="text/css">.st0{fill:#CCCCCC;}
	.st1{fill:#B3B3B3;}
	.st2{fill:#D06C5D;}
	.st3{fill:#961F21;}
	.st4{fill:#8AC640;}
	.st5{fill:#CCA1CC;}
	.st6{fill:#BCD601;}
	.st7{fill:#FFCB39;}
	.st8{fill:#FC8792;}
	.st9{fill:#F5CED3;}
	.st10{fill:#1A1A1A;}
	.st11{fill:#F9F1DA;}
	.st12{fill:#E6E6E6;}
	.st13{fill:#DDC2A8;}
	.st14{fill:#97B87F;}
	.st15{fill:#FAA821;}
	.st16{fill:#333333;}
	.st17{fill:#4EBEB8;}
	.st18{fill:#ABDFEC;}
	.st19{fill:#FAA74B;}
	.st20{fill:#8C6239;}
	.st21{fill:#F06386;}
	.st22{fill:#F8E7D6;}
	.st23{fill:#D3C7BE;}
	.st24{fill:#E2D2C3;}
	.st25{fill:#9294CD;}
	.st26{fill:#E66667;}
	.st27{fill:#FFD602;}
	.st28{fill:#B776BA;}
	.st29{fill:#C69C6D;}
	.st30{fill:#E49F90;}
	.st31{fill:#EAC0B4;}
	.st32{fill:#D3B1AF;}
	.st33{fill:#F2F2F2;}
	.st34{fill:#9CCCB2;}
	.st35{fill:#CDB48C;}
	.st36{fill:#73C977;}
	.st37{fill:none;}
	.st38{fill:#EFB156;}
	.st39{fill:#D7F5F3;}
	.st40{fill:#DA407B;}
	.st41{fill:#DA4147;}
	.st42{fill:#912D61;}
	.st43{fill:#BFB49D;}
	.st44{fill:#FFFFFF;}
	.st45{fill:#23B6DB;}
	.st46{fill:#D7DD50;}
	.st47{fill:#DA444C;}
	.st48{fill:#4D4D4D;}
	.st49{fill:#97857A;}
	.st50{fill:#84735F;}
	.st51{fill:#6E2521;}
	.st52{fill:#3F3C35;}
	.st53{fill:#A1B099;}
	.st54{fill:#D4CEB9;}
	.st55{fill:#854E4C;}
	.st56{fill:#B9986D;}
	.st57{fill:#BAAC91;}
	.st58{fill:#3F4650;}
	.st59{fill:#7B7B73;}
	.st60{fill:#5A5B60;}
	.st61{fill:#984831;}
	.st62{fill:#B1885C;}
	.st63{fill:#653F34;}
	.st64{fill:#DCC69D;}
	.st65{fill:#727D6D;}
	.st66{fill:#9B7455;}
	.st67{fill:#826D56;}
	.st68{fill:#C3A88B;}
	.st69{fill:#96967A;}
	.st70{fill:#9F6B56;}</style>

 <g>
  <title>background</title>
  <rect fill="none" id="canvas_background" height="402" width="582" y="-1" x="-1"/>
 </g>
 <g>
  <title>Layer 1</title>
  <g id="svg_1">
   <g id="svg_2">
    <path id="svg_3" d="m168.7,134.8c0.5,-0.1 1,-0.2 1.4,-0.3c3,-0.7 6.1,0.7 7.5,3.5c1.1,2.2 0,5.1 -2.4,5.8c-0.4,0.1 -1,0 -1.4,-0.2c-0.5,-0.3 -0.5,-0.9 -0.2,-1.5c0.1,-0.2 0.3,-0.4 0.4,-0.6c0.6,-1.1 0.5,-1.6 -0.6,-2.2c-1.3,-0.7 -2.6,-0.6 -3.6,0.5c-0.6,0.7 -1.2,1.5 -1.6,2.3c-0.5,1.4 -0.9,3 -1.2,4.5c-0.5,2.1 -1.9,2.8 -3.8,1.6c-1.7,-1 -2.6,-2.6 -2.7,-4.6c-0.1,-1.8 0.4,-3.4 1.1,-5c0.9,-1.9 1.6,-3.9 1.7,-6.1c0.1,-1.1 0,-2.2 -0.5,-3.2c-0.4,-0.8 -0.9,-1.3 -1.7,-1.6c-0.8,-0.3 -1.5,-0.5 -2.3,-0.8c-2.8,-1.1 -5,-2.9 -6.1,-5.7c-0.7,-1.8 -0.4,-3.5 0.8,-4.9c1.2,-1.4 3,-1.8 4.7,-1.3c1.6,0.6 2.4,1.9 3,3.4c0.2,0.6 0,1.2 -0.5,1.4c-0.4,0.1 -1,0 -1.4,-0.2c-0.4,-0.2 -0.6,-0.6 -1,-0.9c-0.7,-0.6 -1.6,-0.7 -2.2,-0.2c-0.5,0.4 -0.6,1.2 -0.2,2c0.8,1.6 2,2.8 3.7,3.3c0.7,0.2 1.5,0.4 2.2,0.5c3.3,0.6 5.3,2.7 6.2,5.8c0.3,1.2 0.4,2.5 0.6,3.7c0,0.2 0,0.6 0.1,1z" class="st7"/>
    <g id="svg_4">
     <g id="svg_5">
      <path id="svg_6" d="m122.7,251.9c1.6,-0.4 2.9,-0.8 4.3,-1c3.2,-0.5 5.9,0.6 8.5,2.3c1,0.7 1.2,1.7 0.7,2.5c-0.5,0.8 -1.4,1.1 -2.5,0.5c-1.4,-0.7 -2.8,-1.3 -4.4,-1.4c-0.5,0 -1.1,-0.1 -1.7,0.1c0.4,0.2 0.9,0.4 1.3,0.7c2,1.1 3.5,2.6 4.2,4.9c0.1,0.3 0.2,0.6 0.2,0.9c0,1.3 -1.3,2.1 -2.4,1.4c-0.8,-0.5 -1.5,-1.3 -2.2,-2c-1.2,-1.3 -2.2,-1.8 -3.8,-1.7c0.3,1 0.7,2.1 1,3.1c0.2,0.8 0.3,1.7 0.2,2.5c0,1.1 -0.6,1.7 -1.4,1.9c-0.9,0.1 -1.5,-0.3 -1.9,-1.3c-0.1,-0.2 -0.1,-0.4 -0.2,-0.6c-0.4,-2.4 -1.4,-4.4 -2.8,-6.4c-0.7,-1.1 -1,-2.5 -1.2,-3.8c-0.8,-5.1 -1.5,-10.2 -2.2,-15.4c-0.4,-2.9 -0.6,-5.8 -0.9,-8.7c0,-0.4 0,-0.9 0.1,-1.3c0.2,-0.8 0.7,-1.3 1.5,-1.5c0.8,-0.1 1.5,0.2 2,1.1c0.3,0.5 0.5,1.1 0.6,1.7c0.6,3.7 1.2,7.4 1.8,11.2c0.4,3.3 0.8,6.8 1.2,10.3z" class="st15"/>
      <path id="svg_7" d="m96.5,252.2c1.6,0.3 3,0.5 4.4,0.8c3.1,0.8 5.2,2.9 6.9,5.5c0.7,1 0.4,2 -0.3,2.5c-0.8,0.6 -1.7,0.4 -2.5,-0.5c-1,-1.2 -2.1,-2.3 -3.5,-3c-0.5,-0.3 -1,-0.5 -1.6,-0.6c0.3,0.4 0.6,0.7 0.9,1.1c1.4,1.8 2.2,3.8 1.9,6.2c0,0.3 -0.1,0.6 -0.2,0.9c-0.5,1.2 -2,1.4 -2.8,0.3c-0.6,-0.8 -0.9,-1.8 -1.2,-2.7c-0.6,-1.7 -1.3,-2.5 -2.9,-3.1c-0.1,1.1 -0.1,2.2 -0.3,3.3c-0.1,0.8 -0.4,1.7 -0.8,2.4c-0.4,1 -1.2,1.4 -2,1.2c-0.8,-0.2 -1.3,-0.9 -1.3,-2c0,-0.2 0,-0.4 0.1,-0.6c0.6,-2.3 0.5,-4.6 0,-7c-0.3,-1.3 0.1,-2.7 0.4,-4c1.3,-5 2.6,-10 4,-15c0.8,-2.8 1.7,-5.6 2.6,-8.3c0.1,-0.4 0.4,-0.8 0.6,-1.2c0.5,-0.6 1.2,-1 2,-0.8c0.8,0.2 1.3,0.8 1.4,1.8c0,0.6 0,1.2 -0.1,1.8c-0.9,3.7 -1.8,7.3 -2.8,10.9c-0.9,3.4 -1.9,6.7 -2.9,10.1z" class="st15"/>
     </g>
     <path id="svg_8" d="m186.4,170.9c-0.4,-0.3 -0.9,-0.6 -1.2,-1.1c-0.3,-0.4 -0.4,-1 -0.6,-1.5c-0.7,-2 -1.4,-4 -2.2,-5.9c-0.7,-1.8 0,-2.9 2,-3c2.1,0 4.1,0 6.2,0c1.7,0 3.4,-0.1 5.1,-0.2c0.9,0 1.6,0.2 2,1c0.4,0.8 0.2,1.6 -0.3,2.3c-0.3,0.4 -0.7,0.9 -1.1,1.2c-2.3,2 -4.7,3.9 -7.1,5.9c-0.5,0.4 -1.1,0.7 -1.7,1c-0.2,0 -0.6,0.1 -1.1,0.3z" class="st15"/>
    </g>
    <g id="svg_9">
     <path id="svg_10" d="m172,191.8c-3.3,6.1 -8,10.9 -14.2,14.1c-5.2,2.7 -10.6,3.3 -16.2,1.2c-3.8,-1.5 -7.2,-3.8 -10,-6.8c-5.2,-5.4 -8.7,-11.9 -11,-19c-1.2,-3.6 -2,-7.3 -2.4,-11c-1,-9.6 -0.9,-19.2 1.2,-28.6c0.7,-3 1.5,-6 3.2,-8.7c0.5,-0.8 1,-1.5 1.5,-2.2c2.6,-3 6.1,-3.3 9.3,-0.8c2,1.6 3.9,3.4 6,5.1c3.9,3.1 7.9,6 11.9,9c5.8,4.4 11.4,8.9 15.9,14.6c2.1,2.5 3.9,5.2 5.3,8.2c4,8.4 4,16.7 -0.5,24.9z" class="st7"/>
    </g>
    <path id="svg_11" d="m118.8,235.7c-7.2,0.3 -14.2,-1.2 -20.9,-3.6c-6.4,-2.3 -12.8,-4.9 -18.8,-8c-0.9,-0.5 -1.9,-1 -2.7,-1.7c-1.6,-1.2 -1.8,-2.8 -0.8,-4.5c0.3,-0.5 0.7,-1 1.1,-1.4c6,-6.4 11.1,-13.5 15.9,-20.8c1.6,-2.4 3.2,-4.9 4.7,-7.3c4.9,-7.6 10,-15.1 15.7,-22.1c3.4,-4.1 7.1,-7.9 11.3,-11.3c7.7,-6.1 16.4,-9.8 26.1,-11.1c5.1,-0.7 10.2,-0.8 15.2,0.7c9.2,2.9 15.8,8.7 19.4,17.7c1.5,3.7 2.4,7.4 2.7,11.4c1,12 -2.1,22.9 -8.6,32.9c-3.5,5.3 -8.1,9.6 -13.1,13.4c-6.5,5 -13.8,8.6 -21.5,11.4c-6.7,2.4 -13.6,3.8 -20.7,4.5c-1.5,-0.1 -3.3,-0.2 -5,-0.2z" class="st5"/>
    <g id="svg_12">
     <path id="svg_13" d="m132.3,191.2c-0.1,7 -2,13.4 -5.9,19.1c-3.3,4.8 -7.8,7.9 -13.7,8.6c-4.1,0.5 -8.1,0 -12,-1.3c-7.2,-2.3 -13.2,-6.4 -18.6,-11.6c-2.7,-2.6 -5.2,-5.5 -7.3,-8.6c-5.4,-8 -9.8,-16.5 -12.3,-25.9c-0.8,-3 -1.5,-6.1 -1.3,-9.2c0,-0.9 0.1,-1.8 0.3,-2.7c0.9,-3.9 3.8,-5.8 7.9,-5c2.6,0.5 5.1,1.2 7.7,1.7c4.9,0.9 9.8,1.6 14.7,2.4c7.2,1.1 14.2,2.6 20.9,5.4c3,1.3 5.9,2.8 8.5,4.8c7.3,5.6 11.2,12.9 11.1,22.3z" class="st7"/>
     <g id="svg_14">
      <path id="svg_15" d="m91.7,180.6c-0.7,-0.2 -1.8,-0.5 -2.9,-0.8c-0.4,-0.1 -0.9,-0.4 -1.1,-0.7c-0.3,-0.4 -0.5,-0.9 -0.4,-1.3c0.1,-0.6 0.7,-0.7 1.2,-0.6c0.3,0 0.6,0.1 0.9,0.2c0.8,0.1 1.7,0.4 2.5,0.4c2.1,0 3.5,-1 4.5,-2.8c0.8,-1.6 0.5,-3.2 -0.6,-4.7c-0.5,-0.7 -1.2,-1.3 -1.8,-2c-0.5,-0.6 -1.1,-1.2 -1.5,-1.9c-0.2,-0.3 0,-0.8 0.1,-1.1c0.1,-0.2 0.6,-0.2 0.9,-0.2c0.2,0 0.5,0.2 0.7,0.3c1.7,1.1 3.2,2.4 4.2,4c1.5,2.3 1.6,4.7 0.2,7.1c-1.3,2.4 -3.4,3.9 -6.9,4.1z" class="st5"/>
      <path id="svg_16" d="m124.9,191.7c-0.1,2.7 -0.9,4.9 -2.7,6.6c-1.8,1.8 -4,2.4 -6.5,1.6c-0.7,-0.2 -1.4,-0.7 -1.9,-1.2c-0.3,-0.3 -0.5,-1 -0.3,-1.3c0.2,-0.3 0.8,-0.6 1.2,-0.6c0.5,0 1,0.2 1.5,0.3c1.8,0.4 3.3,-0.2 4.3,-1.7c1.1,-1.6 1.6,-3.4 1.1,-5.3c-0.3,-1 -0.8,-2 -1.1,-2.9c-0.2,-0.7 -0.4,-1.3 -0.5,-2c0,-0.3 0.3,-0.8 0.5,-0.9c0.3,-0.1 0.7,0 1.1,0.2c0.3,0.1 0.5,0.4 0.7,0.6c1.5,2 2.5,4.3 2.6,6.6z" class="st5"/>
      <path id="svg_17" d="m93,192.5c-0.1,0.5 -0.2,1.3 -0.4,2c-1.3,4.1 -5.9,5.7 -9.3,3.1c-1.3,-1 -2.4,-2.4 -3.5,-3.7c-0.5,-0.6 -0.4,-1.3 0.1,-1.8c0.5,-0.5 1.2,-0.4 1.9,0.2c0.8,0.7 1.5,1.5 2.2,2.2c1,1 2.3,1.6 3.7,1.1c1.5,-0.6 2,-1.9 2.1,-3.4c0,-1 -0.1,-2 -0.2,-3c0,-0.4 -0.2,-0.8 -0.1,-1.2c0.1,-0.4 0.3,-0.9 0.6,-1.1c0.5,-0.3 1,0 1.3,0.4c1,1.1 1.4,2.4 1.5,3.9c0,0.4 0,0.7 0.1,1.3z" class="st5"/>
      <path id="svg_18" d="m76.3,183.4c-1.1,-0.1 -2.4,-0.7 -3.5,-1.5c-1.6,-1.1 -2.8,-2.5 -3.5,-4.2c-0.5,-1.1 -0.4,-2 0.2,-2.3c0.6,-0.3 1.2,0 2,1c0.7,0.9 1.3,1.9 2.2,2.7c0.7,0.7 1.6,1.3 2.4,1.7c1.5,0.7 2.7,0 3.1,-1.6c0.2,-0.7 0.1,-1.5 -0.1,-2.2c-0.4,-1.2 -0.9,-2.3 -1.4,-3.5c-0.3,-0.7 -0.6,-1.4 -0.8,-2.1c-0.1,-0.5 0,-1 0.5,-1.1c0.3,-0.1 0.9,0.1 1,0.4c1.5,2.3 2.9,4.6 3.1,7.4c0.2,3 -2.1,5.4 -5.2,5.3z" class="st5"/>
      <path id="svg_19" d="m105.7,206.7c0,4.1 -2.9,6.6 -6.8,5.8c-1.1,-0.2 -2.2,-0.7 -3.2,-1.2c-0.4,-0.2 -0.8,-0.6 -1.1,-1c-0.2,-0.3 -0.3,-0.8 -0.2,-1.1c0.1,-0.2 0.7,-0.3 1,-0.3c0.4,0 0.8,0.3 1.3,0.4c1.1,0.2 2.3,0.5 3.4,0.5c1.4,0 2.3,-0.8 2.4,-2.1c0.1,-1.2 -0.2,-2.4 -0.3,-3.5c-0.1,-0.6 -0.3,-1.2 -0.4,-1.7c-0.1,-0.6 -0.2,-1.4 0.6,-1.7c0.8,-0.3 1.3,0.2 1.5,0.9c0.5,1.3 1,2.7 1.5,4.1c0.3,0.2 0.2,0.6 0.3,0.9z" class="st5"/>
      <path id="svg_20" d="m115.6,174.6c0,3.7 -2.8,6.3 -6,6c-0.8,-0.1 -1.6,-0.4 -2.2,-0.8c-0.3,-0.2 -0.6,-0.8 -0.6,-1.2c0,-0.6 0.6,-0.7 1.1,-0.7c0.7,-0.1 1.5,-0.1 2.2,-0.2c2.2,-0.5 3.1,-2.6 2,-4.5c-0.5,-0.9 -1.2,-1.6 -1.8,-2.4c-0.7,-1 -0.8,-1.7 -0.3,-2.2c0.5,-0.5 1.2,-0.3 2.1,0.4c2,1.6 3.4,3.4 3.5,5.6z" class="st5"/>
      <path id="svg_21" d="m107.2,190.3c0,3.1 -1.8,4.9 -4.6,4.9c-1.8,0 -3.3,-0.7 -4.6,-1.9c-0.3,-0.2 -0.5,-0.8 -0.4,-1.2c0.2,-0.5 0.7,-0.6 1.3,-0.4c0.5,0.2 1,0.4 1.6,0.5c0.5,0.2 1.1,0.4 1.6,0.4c1.7,0.2 2.7,-0.7 2.5,-2.4c-0.1,-1.2 -0.7,-2.3 -1.4,-3.3c-0.6,-0.8 -1.2,-1.6 -1.7,-2.5c-0.2,-0.3 -0.4,-0.7 -0.4,-1.1c-0.1,-0.8 0.5,-1.2 1.3,-0.9c0.2,0.1 0.4,0.2 0.6,0.4c1.8,1.7 3.2,3.7 4,6.1c0.1,0.6 0.1,1.2 0.2,1.4z" class="st5"/>
      <path id="svg_22" d="m120.7,205.7c0,3.7 -2.1,6.6 -5.1,7.4c-1.7,0.5 -3.3,0.1 -4.8,-0.8c-0.8,-0.5 -1,-1 -0.7,-1.6c0.3,-0.7 0.9,-0.7 1.5,-0.6c0.4,0.1 0.9,0.1 1.3,0.2c2,0.6 4.6,-1.2 4.8,-3.4c0,-0.4 0.1,-0.8 0.1,-1.2c0,-0.3 0,-0.7 0.1,-1c0.2,-0.7 0.5,-1.2 1.3,-1.3c0.6,0 1.2,0.6 1.3,1.4c0.2,0.4 0.1,0.8 0.2,0.9z" class="st5"/>
      <path id="svg_23" d="m75.9,162.2c-0.2,2 -0.7,3.4 -2.2,4.3c-1.4,0.8 -2.8,0.6 -4.1,-0.2c-0.3,-0.2 -0.6,-0.4 -0.8,-0.7c-0.2,-0.3 -0.3,-0.8 -0.1,-1.1c0.2,-0.3 0.7,-0.5 1.1,-0.6c0.4,0 0.8,0.2 1.1,0.3c0.7,0.2 1.4,0.2 1.9,-0.4c0.5,-0.6 0.6,-1.3 0.4,-2.1c-0.1,-0.3 -0.3,-0.5 -0.4,-0.8c-0.2,-0.7 0,-1.2 0.6,-1.5c0.5,-0.3 1.2,-0.2 1.6,0.4c0.4,0.8 0.7,1.7 0.9,2.4z" class="st5"/>
     </g>
    </g>
    <path id="svg_24" d="m66.5,225.1c-3.5,0 -6.7,-1 -9.5,-3.1c-2.7,-2.1 -3.7,-5.4 -2.5,-8.6c1.1,-2.9 3.3,-4.2 6.2,-4.5c2,-0.2 3.9,0 5.8,0.7c5.2,1.9 10.1,4.2 14.6,7.5c0.4,0.3 0.9,0.7 1.3,1.1c1.3,1.4 1,2.9 -0.8,3.6c-3.1,1.2 -6.2,2.1 -9.4,2.6c-2,0.2 -3.9,0.5 -5.7,0.7z" class="st7"/>
    <ellipse id="svg_25" ry="3.6" rx="3.6" cy="161.4" cx="162.3" class="st16" transform="matrix(0.6788,-0.7343,0.7343,0.6788,-66.3888,171.0338) "/>
   </g>
   <g id="svg_26">
    <g id="svg_27">
     <path id="svg_28" d="m285.4,260.2c-0.4,-0.3 -0.9,-0.6 -1.2,-1.1c-0.3,-0.4 -0.4,-1 -0.6,-1.5c-0.7,-2 -1.4,-4 -2.2,-5.9c-0.7,-1.8 0,-2.9 2,-3c2.1,0 4.1,0 6.2,0c1.7,0 3.4,-0.1 5.1,-0.2c0.9,0 1.6,0.2 2,1c0.4,0.8 0.2,1.6 -0.3,2.3c-0.3,0.4 -0.7,0.9 -1.1,1.2c-2.3,2 -4.7,3.9 -7.1,5.9c-0.5,0.4 -1.1,0.7 -1.7,1c-0.2,0.1 -0.5,0.1 -1.1,0.3z" class="st15"/>
     <g id="svg_29">
      <path id="svg_30" d="m198.2,339.2c-1.9,2.5 -4.4,3.5 -7.2,3.5c-0.2,0 -0.4,0 -0.6,0c-1,-0.1 -1.8,-0.7 -1.9,-1.4c-0.1,-0.8 0.5,-1.5 1.5,-1.8c0.8,-0.2 1.6,-0.3 2.4,-0.4c1.1,-0.2 2,-0.8 2.6,-1.8c-0.1,0 -0.2,-0.1 -0.3,-0.1c-2.3,1.2 -4.5,0.6 -6.7,-0.4c-0.3,-0.1 -0.5,-0.3 -0.8,-0.5c-0.7,-0.6 -0.9,-1.4 -0.6,-2.1c0.3,-0.7 1.2,-1.1 2.1,-0.8c0.5,0.1 1,0.5 1.5,0.6c0.8,0.2 1.7,0.3 2.5,0.3c1,0 1.6,-0.5 1.9,-1.6c0.7,-2.4 2.3,-3.1 4.4,-1.8c2.3,1.5 4.5,3.2 6.7,4.9c1.1,0.8 2.1,1.7 3.3,2.7c0.3,-1.8 0.5,-3.3 0.8,-4.9c1,-5 2,-10 3.1,-15c0.1,-0.6 0.4,-1.2 0.7,-1.8c0.3,-0.6 0.9,-1 1.6,-0.9c0.8,0.1 1.3,0.6 1.4,1.4c0.1,0.9 0.2,1.8 0,2.7c-0.7,4 -1.4,7.9 -2.2,11.8c-0.5,2.5 -1.1,4.9 -1.7,7.3c-0.3,1 -0.6,2 -1.1,2.9c-0.8,1.4 -2.1,1.7 -3.5,0.8c-0.8,-0.5 -1.6,-1.2 -2.4,-1.9c-1.4,-1.2 -2.8,-2.4 -4.4,-3.7c0.1,1.1 0.3,2 0.3,2.8c0.1,2.9 -1.5,5.3 -4,6.3c-0.4,0.1 -0.8,0.2 -1.2,0.3c-1.2,0 -1.9,-1.2 -1.2,-2.2c0.4,-0.6 1.1,-1 1.6,-1.5c1.4,-1.1 1.6,-1.8 1.4,-3.7z" class="st15"/>
      <path id="svg_31" d="m230.9,342.6c1.6,-0.4 2.9,-0.8 4.3,-1c3.2,-0.5 5.9,0.6 8.5,2.3c1,0.7 1.2,1.7 0.7,2.5c-0.5,0.8 -1.4,1.1 -2.5,0.5c-1.4,-0.7 -2.8,-1.3 -4.4,-1.4c-0.5,0 -1.1,-0.1 -1.7,0.1c0.4,0.2 0.9,0.4 1.3,0.7c2,1.1 3.5,2.6 4.2,4.9c0.1,0.3 0.2,0.6 0.2,0.9c0,1.3 -1.3,2.1 -2.4,1.4c-0.8,-0.5 -1.5,-1.3 -2.2,-2c-1.2,-1.3 -2.2,-1.8 -3.8,-1.7c0.3,1 0.7,2.1 1,3.1c0.2,0.8 0.3,1.7 0.2,2.5c0,1.1 -0.6,1.7 -1.4,1.9c-0.9,0.1 -1.5,-0.3 -1.9,-1.3c-0.1,-0.2 -0.1,-0.4 -0.2,-0.6c-0.4,-2.4 -1.4,-4.4 -2.8,-6.4c-0.7,-1.1 -1,-2.5 -1.2,-3.8c-0.8,-5.1 -1.5,-10.2 -2.2,-15.4c-0.4,-2.9 -0.6,-5.8 -0.9,-8.7c0,-0.4 0,-0.9 0.1,-1.3c0.2,-0.8 0.7,-1.3 1.5,-1.5c0.8,-0.1 1.5,0.2 2,1.1c0.3,0.5 0.5,1.1 0.6,1.7c0.6,3.7 1.2,7.4 1.8,11.2c0.5,3.3 0.8,6.8 1.2,10.3z" class="st15"/>
     </g>
    </g>
    <path id="svg_32" d="m259.8,244.3c0.1,-0.4 0.1,-0.9 0.3,-1.4c0.6,-2.4 0.5,-4.8 -0.2,-7.1c-0.9,-3.5 -1.9,-7 -2.7,-10.5c-1.1,-5.2 -1.4,-10.4 -0.2,-15.7c0.9,-4 2.8,-7.6 5.1,-11c0.1,-0.2 0.3,-0.4 0.5,-0.6c0.5,-0.4 1,-0.6 1.5,-0.2c0.3,0.3 0.6,0.8 0.6,1.3c0,0.5 -0.3,0.9 -0.6,1.4c-1.3,2.4 -2.7,4.7 -3.4,7.4c-1.4,4.9 -1.2,9.9 -0.1,14.8c0.9,3.9 2,7.8 3,11.7c0.7,2.8 1.2,5.6 0.5,8.5c-0.2,0.9 -0.5,1.7 -0.9,2.6c-0.4,1 -1.3,1.4 -2,1.1c-1,-0.4 -1.5,-1.2 -1.4,-2.3z" class="st6"/>
    <g id="svg_33">
     <path id="svg_34" d="m218.6,227.4c0.3,-2.9 0.8,-5.9 1.4,-8.8c0.5,-2.4 2.1,-3.1 4.3,-1.9c1.1,0.6 2.3,1.3 3.3,2.1c3.2,2.5 6.7,4.4 10.2,6.5c5.3,3.1 10.6,6.1 15.9,9.3c6,3.6 11.3,8 15.8,13.4c2.9,3.5 5.2,7.4 6.6,11.7c2.6,8.4 0.8,15.7 -5.6,21.5c-9.1,8.2 -23.9,10.5 -35.6,1.5c-5.7,-4.4 -9.5,-10.2 -12.3,-16.7c-3.5,-8.2 -4.7,-16.8 -4.9,-27.4c0,-2.5 0.4,-6.9 0.9,-11.2z" class="st6"/>
    </g>
    <path id="svg_35" d="m217.2,325.1c-7.2,0.3 -14.2,-1.2 -20.9,-3.6c-6.4,-2.3 -12.8,-4.9 -18.8,-8c-0.9,-0.5 -1.9,-1 -2.7,-1.7c-1.6,-1.2 -1.8,-2.8 -0.8,-4.5c0.3,-0.5 0.7,-1 1.1,-1.4c6,-6.4 11.1,-13.5 15.9,-20.8c1.6,-2.4 3.2,-4.9 4.7,-7.3c4.9,-7.6 10,-15.1 15.7,-22.1c3.4,-4.1 7.1,-7.9 11.3,-11.3c7.7,-6.1 16.4,-9.8 26.1,-11.1c5.1,-0.7 10.2,-0.8 15.2,0.7c9.2,2.9 15.8,8.7 19.4,17.7c1.5,3.7 2.4,7.4 2.7,11.4c1,12 -2.1,22.9 -8.6,32.9c-3.5,5.3 -8.1,9.6 -13.1,13.4c-6.5,5 -13.8,8.6 -21.5,11.4c-6.7,2.4 -13.6,3.8 -20.7,4.5c-1.6,-0.1 -3.3,-0.2 -5,-0.2z" class="st8"/>
    <path id="svg_36" d="m163,314.2c-3.5,0 -6.7,-1 -9.5,-3.1c-2.7,-2.1 -3.7,-5.4 -2.5,-8.6c1.1,-2.9 3.3,-4.2 6.2,-4.5c2,-0.2 3.9,0 5.8,0.7c5.2,1.9 10.1,4.2 14.6,7.5c0.4,0.3 0.9,0.7 1.3,1.1c1.3,1.4 1,2.9 -0.8,3.6c-3.1,1.2 -6.2,2.1 -9.4,2.6c-1.9,0.2 -3.8,0.4 -5.7,0.7z" class="st6"/>
    <path id="svg_37" d="m261.2,209c0.9,-0.9 2.2,-2 3.4,-3.2c1.8,-1.8 3.6,-1.5 4.6,0.9c0.8,2.1 1.2,4.3 1.2,6.5c0,2 -1.3,3.2 -3.3,3c-1.8,-0.2 -3.5,-0.7 -5.3,-1.1c-0.6,-0.1 -1.1,-0.3 -1.7,-0.1c-0.6,0.2 -1.3,0.1 -1.9,-0.2c-0.7,-0.3 -1.2,-0.3 -1.9,-0.1c-0.8,0.3 -1.6,0.6 -2.4,0.7c-1.8,0.4 -3.1,-0.3 -3.3,-2.1c-0.2,-1.8 -0.2,-3.7 0.1,-5.5c0.4,-2.6 2.5,-3.2 4.6,-1.7c0.4,0.3 0.7,0.6 1,0.9c1.3,1 2.4,2.5 4.9,2z" class="st8"/>
    <g id="svg_38">
     <path id="svg_39" d="m188.4,248.5c10.6,0.1 19.2,1.3 27.4,4.9c6.5,2.8 12.3,6.6 16.7,12.3c9,11.7 6.8,26.5 -1.5,35.6c-5.8,6.5 -13.2,8.3 -21.5,5.7c-4.4,-1.4 -8.2,-3.6 -11.7,-6.6c-5.4,-4.5 -9.8,-9.8 -13.4,-15.8c-3.2,-5.2 -6.3,-10.5 -9.3,-15.8c-2,-3.5 -4,-7 -6.5,-10.2c-0.8,-1 -1.5,-2.1 -2.1,-3.3c-1.2,-2.2 -0.5,-3.8 1.9,-4.3c2.9,-0.6 5.8,-1.1 8.8,-1.4c4.3,-0.5 8.7,-0.8 11.2,-1.1z" class="st6"/>
     <g id="svg_40">
      <path id="svg_41" d="m206.9,254.3c1.1,0.3 2,0.6 3,0.8c3.5,1.1 6.8,2.5 9.9,4.4c0.7,0.4 1.1,0.9 1.5,1.6c2.1,4.2 2.9,8.6 3,13.3c0.1,3.3 0.1,6.6 0.1,9.9c0,0.2 0,0.4 0,0.8c-0.5,-0.4 -0.8,-0.7 -1.2,-0.9c-1.6,-1.3 -3.1,-2.6 -4.7,-3.8c-0.8,-0.6 -1.5,-1.4 -1.8,-2.3c-1,-2.8 -2.2,-5.5 -3.1,-8.3c-1.7,-5.2 -3.6,-10.3 -6.6,-14.8c-0.1,-0.2 -0.1,-0.4 -0.1,-0.7z" class="st8"/>
      <path id="svg_42" d="m210.2,280.2c-5.3,1.5 -10.4,3 -15.5,4.4c-1.3,0.3 -2.7,0.3 -4,0.4c-0.6,0.1 -0.9,-0.2 -1.2,-0.7c-0.7,-1.1 -1.4,-2.2 -2.1,-3.3c-1.4,-2.4 -2.8,-4.8 -4.2,-7.2c-0.2,-0.4 -0.4,-0.8 -0.6,-1.2c4,-0.4 7.9,-0.8 11.8,-1.1c1.8,-0.1 3.4,0.2 5,1.3c3,2.1 6.2,4.1 9.3,6.2c0.4,0.4 0.8,0.7 1.5,1.2z" class="st8"/>
      <path id="svg_43" d="m202.4,298.4c3.8,-0.1 7,-1.3 10.2,-2.6c2.4,-1 4.7,-2 7.1,-2.9c1.4,-0.5 2.8,-0.8 4.2,-1.2c0.8,-0.2 1.4,0 2,0.6c1.3,1.3 2.8,2.5 4.2,3.8c-0.2,0.3 -0.4,0.7 -0.6,1c-2.4,3.2 -5.4,5.6 -9.3,6.7c-2.7,0.8 -5.4,0.7 -8,-0.1c-3.4,-1 -6.5,-2.6 -9.3,-4.7c-0.1,-0.1 -0.2,-0.2 -0.5,-0.6z" class="st8"/>
      <path id="svg_44" d="m192.1,287.9c4.5,0.3 8.4,-1.1 12.5,-2.3c2.4,-0.7 4.8,-1.4 7.2,-2.1c1.6,-0.5 3,-0.3 4.3,0.9c1.7,1.4 3.5,2.7 5.3,4.1c-0.2,0.2 -0.3,0.3 -0.4,0.4c-3.1,1.1 -6.2,2.1 -9.2,3.4c-3.8,1.5 -7.6,2.8 -11.7,3.2c-1.1,0.1 -1.8,-0.1 -2.5,-0.9c-1.6,-1.8 -3.2,-3.6 -4.8,-5.4c-0.2,-0.5 -0.4,-0.9 -0.7,-1.3z" class="st8"/>
      <path id="svg_45" d="m211.2,274.9c-0.5,-0.3 -0.9,-0.5 -1.2,-0.7c-2.5,-1.7 -5,-3.4 -7.5,-5c-0.8,-0.5 -1.5,-1.2 -1.9,-2.1c-0.9,-1.7 -1.8,-3.4 -2.6,-5.1c-1.6,-3 -3.1,-6.1 -5.2,-8.8c-0.1,-0.2 -0.2,-0.4 -0.4,-0.7c1.5,0 2.8,-0.1 4.1,0c1.5,0.1 3.1,0.4 4.6,0.6c0.8,0.1 1.3,0.5 1.8,1.2c2.4,3.9 4.4,8 5.7,12.4c0.7,2.4 1.6,4.8 2.4,7.1c0,0.3 0,0.6 0.2,1.1z" class="st8"/>
      <path id="svg_46" d="m232.3,292.5c-1.3,-1.2 -2.4,-2.2 -3.5,-3.3c-0.3,-0.3 -0.5,-0.9 -0.5,-1.4c-0.2,-2.4 -0.4,-4.8 -0.6,-7.2c-0.2,-3.5 -0.2,-7 -0.4,-10.5c-0.1,-1.7 -0.6,-3.4 -0.7,-5.2c3.6,3.3 6.1,7.2 7.2,12c1.3,5.3 0.8,10.5 -1.5,15.6z" class="st8"/>
      <path id="svg_47" d="m194.8,264.3c-6.7,-4.1 -13.2,-7.8 -20.3,-10.6c0,-0.1 0,-0.2 0,-0.3c1.8,-0.2 3.6,-0.5 5.4,-0.6c2.4,-0.2 4.9,-0.3 7.4,-0.5c0.5,0 0.9,0 1.3,0.4c2.4,2.6 5.3,8 6.2,11.6z" class="st8"/>
      <path id="svg_48" d="m191.5,268.5c-3.2,0.2 -6.4,0.4 -9.6,0.6c-0.9,0.1 -1.4,-0.2 -1.9,-1.1c-1.4,-2.6 -3,-5.2 -4.5,-7.8c-0.1,-0.1 -0.1,-0.3 -0.2,-0.6c5.7,2.5 11,5.4 16.2,8.5c0.1,0.2 0,0.3 0,0.4z" class="st8"/>
     </g>
    </g>
    <ellipse id="svg_49" ry="3.6" rx="3.6" cy="253.1" cx="261.5" class="st16" transform="matrix(0.6788,-0.7343,0.7343,0.6788,-101.8494,273.2926) "/>
   </g>
   <g id="svg_50">
    <g id="svg_51">
     <path id="svg_52" d="m354.1,138.3c-3.3,6.1 -8,10.9 -14.2,14.1c-5.2,2.7 -10.6,3.3 -16.2,1.2c-3.8,-1.5 -7.2,-3.8 -10,-6.8c-5.2,-5.4 -8.7,-11.9 -11,-19c-1.2,-3.6 -2,-7.3 -2.4,-11c-1,-9.6 -0.9,-19.2 1.2,-28.6c0.7,-3 1.5,-6 3.2,-8.7c0.5,-0.8 1,-1.5 1.5,-2.2c2.6,-3 6.1,-3.3 9.3,-0.8c2,1.6 3.9,3.4 6,5.1c3.9,3.1 7.9,6 11.9,9c5.8,4.4 11.4,8.9 15.9,14.6c2.1,2.5 3.9,5.2 5.3,8.2c3.9,8.4 4,16.7 -0.5,24.9z" class="st17"/>
    </g>
    <g id="svg_53">
     <g id="svg_54">
      <path id="svg_55" d="m294.9,213.3c-0.1,0.7 -0.1,1.3 -0.3,1.9c-0.3,1.2 -1.1,1.9 -2.1,1.8c-0.9,-0.1 -1.6,-0.8 -1.8,-2c-0.1,-1.1 0,-2.3 0,-3.8c-1.1,1.1 -1.9,1.9 -2.8,2.7c-0.4,0.4 -0.8,0.8 -1.2,1.1c-0.6,0.4 -1.3,0.4 -2,-0.1c-0.6,-0.5 -0.8,-1.3 -0.5,-2c0.2,-0.4 0.4,-0.7 0.6,-1c1.7,-2.2 3.4,-4.5 5.2,-6.7c0.5,-0.6 0.7,-1.2 0.7,-1.9c-0.2,-6.7 -0.3,-13.5 -0.4,-20.2c0,-2.6 0,-5.2 0.1,-7.8c0,-0.9 0.3,-1.8 0.7,-2.6c0.8,-1.5 2.6,-1.5 3.4,0c0.5,0.9 0.9,2.1 1,3.1c0.3,2.2 0.5,4.4 0.6,6.6c0.3,7.2 0.4,14.5 0.1,21.7c-0.1,1.6 0.3,2.9 1.4,4.1c1.1,1.2 2,2.6 3,4c0.2,0.2 0.3,0.5 0.4,0.8c0.3,0.9 0.2,1.7 -0.5,2.3c-0.7,0.6 -1.6,0.7 -2.4,0.2c-1,-0.6 -2,-1.4 -3.2,-2.2z" class="st15"/>
      <path id="svg_56" d="m315.3,209.4c0,0.7 0.1,1.3 0.1,1.9c-0.1,1.2 -0.8,2.1 -1.7,2.2c-0.9,0.1 -1.8,-0.5 -2.1,-1.6c-0.3,-1.1 -0.4,-2.2 -0.7,-3.7c-0.9,1.2 -1.6,2.2 -2.3,3.1c-0.3,0.4 -0.6,0.9 -1,1.3c-0.5,0.6 -1.2,0.7 -1.9,0.3c-0.7,-0.4 -1,-1.1 -0.8,-1.9c0.1,-0.4 0.3,-0.8 0.4,-1.1c1.3,-2.5 2.6,-5 3.9,-7.5c0.4,-0.7 0.5,-1.3 0.3,-2c-1.4,-6.6 -2.7,-13.2 -4,-19.8c-0.5,-2.6 -0.9,-5.1 -1.2,-7.7c-0.1,-0.9 0,-1.8 0.3,-2.7c0.5,-1.6 2.2,-1.9 3.3,-0.6c0.7,0.8 1.2,1.9 1.5,2.9c0.7,2.1 1.2,4.2 1.7,6.4c1.5,7.1 2.9,14.2 3.9,21.4c0.2,1.6 0.8,2.8 2.1,3.7c1.3,1 2.4,2.2 3.6,3.4c0.2,0.2 0.4,0.5 0.5,0.7c0.4,0.8 0.5,1.6 -0.1,2.4c-0.6,0.8 -1.4,1 -2.3,0.7c-1.1,-0.6 -2.2,-1.2 -3.5,-1.8z" class="st15"/>
     </g>
     <path id="svg_57" d="m367.3,112.9c-0.4,-0.3 -0.9,-0.6 -1.3,-1c-0.3,-0.4 -0.5,-1 -0.7,-1.5c-0.9,-1.9 -1.7,-3.8 -2.6,-5.7c-0.8,-1.8 -0.3,-2.9 1.7,-3.1c2,-0.2 4.1,-0.3 6.1,-0.5c1.7,-0.2 3.4,-0.4 5.1,-0.6c0.9,-0.1 1.6,0 2.1,0.8c0.5,0.8 0.4,1.5 -0.1,2.3c-0.3,0.5 -0.6,0.9 -1,1.3c-2.2,2.2 -4.4,4.3 -6.6,6.4c-0.5,0.4 -1,0.8 -1.6,1.2c-0.2,0.1 -0.6,0.2 -1.1,0.4z" class="st15"/>
    </g>
    <path id="svg_58" d="m300.9,179.6c-7.2,0.3 -14.2,-1.2 -20.9,-3.6c-6.4,-2.3 -12.8,-4.9 -18.8,-8c-0.9,-0.5 -1.9,-1 -2.7,-1.7c-1.6,-1.2 -1.8,-2.8 -0.8,-4.5c0.3,-0.5 0.7,-1 1.1,-1.4c6,-6.4 11.1,-13.5 15.9,-20.8c1.6,-2.4 3.2,-4.9 4.7,-7.3c4.9,-7.6 10,-15.1 15.7,-22.1c3.4,-4.1 7.1,-7.9 11.3,-11.3c7.7,-6.1 16.4,-9.8 26.1,-11.1c5.1,-0.7 10.2,-0.8 15.2,0.7c9.2,2.9 15.8,8.7 19.4,17.7c1.5,3.7 2.4,7.4 2.7,11.4c1,12 -2.1,22.9 -8.6,32.9c-3.5,5.3 -8.1,9.6 -13.1,13.4c-6.5,5 -13.8,8.6 -21.5,11.4c-6.7,2.4 -13.6,3.8 -20.7,4.5c-1.6,0 -3.3,-0.2 -5,-0.2z" class="st18"/>
    <path id="svg_59" d="m348.5,80.5c0.2,-0.9 0.3,-1.5 0.5,-2.1c0.5,-1.6 2.1,-2.2 3.5,-1.3c1,0.6 1.7,1.4 2.3,2.4c1.5,2.7 2.6,5.6 3.1,8.7c0,0.1 0,0.2 0,0.2c0.3,3.2 -1.2,4.8 -4.3,4.6c-5,-0.3 -10,-1.1 -14.7,-3.1c-2.2,-0.9 -4.4,-2.1 -6.6,-3.2c-0.7,-0.4 -1.3,-1 -1.7,-1.6c-0.9,-1.3 -0.6,-2.8 0.7,-3.7c0.8,-0.5 1.8,-0.8 2.8,-1c2,-0.4 4,-0.1 6,0.3c0.4,0.1 0.9,0.2 1.4,0.3c-0.1,-0.5 -0.2,-0.9 -0.3,-1.3c-0.3,-1.6 0.9,-2.8 2.4,-2.2c1.2,0.5 2.3,1.2 3.5,1.9c0.4,0.3 0.8,0.7 1.4,1.1z" class="st17"/>
    <path id="svg_60" d="m246.7,168.3c-3.5,0 -6.7,-1 -9.5,-3.1c-2.7,-2.1 -3.7,-5.4 -2.5,-8.6c1.1,-2.9 3.3,-4.2 6.2,-4.5c2,-0.2 3.9,0 5.8,0.7c5.2,1.9 10.1,4.2 14.6,7.5c0.4,0.3 0.9,0.7 1.3,1.1c1.3,1.4 1,2.9 -0.8,3.6c-3.1,1.2 -6.2,2.1 -9.4,2.6c-2,0.1 -3.8,0.4 -5.7,0.7z" class="st17"/>
    <g id="svg_61">
     <path id="svg_62" d="m318.4,120.4c3.3,7.3 4.8,14.1 4.2,21.4c-0.7,8.1 -4.4,14.4 -10.7,19.5c-5.6,4.4 -11.8,6 -18.9,5.2c-6.8,-0.8 -13.1,-3.1 -19,-6.4c-6.5,-3.7 -12.4,-8.2 -17.8,-13.3c-4.2,-3.9 -8.2,-8 -11.6,-12.6c-2.2,-3.1 -4.3,-6.2 -5.5,-9.8c-1.3,-4.1 -0.5,-7.7 2.2,-11c1.9,-2.2 4.1,-4 6.5,-5.6c5,-3.5 10.6,-5.3 16.5,-6.3c10.6,-1.8 21.2,-1.6 31.6,1.6c7.8,2.4 14.4,6.7 19.6,12.9c1.1,1.5 2.1,3.3 2.9,4.4z" class="st17"/>
     <path id="svg_63" d="m273.1,122.5c0.5,0.2 1,0.4 1.4,0.6c2.1,0.9 4.2,1.8 6.2,2.8c0.8,0.4 1.5,1.1 2.2,1.8c0.7,0.8 0.8,1.8 0.3,2.8c-0.5,1 -1.4,1.5 -2.4,1.5c-0.7,0 -1.4,0 -2.1,-0.3c-1.3,-0.5 -2.6,-1.1 -3.9,-1.7c-0.4,-0.2 -0.8,-0.5 -1.4,-0.8c0.1,1.5 0.3,2.9 0.2,4.2c0,1.2 -0.2,2.5 -0.4,3.7c-0.1,0.5 -0.3,1.1 -0.6,1.5c-1,1.5 -2.8,1.4 -3.9,0c-0.9,-1.2 -1.3,-2.7 -1.5,-4.2c-0.2,-1.1 -0.3,-2.2 -0.4,-3.4c-0.4,0.2 -0.7,0.4 -1,0.6c-1.5,1 -3,2 -4.9,2.3c-0.5,0.1 -1,0.1 -1.5,0.1c-1.7,-0.1 -2.7,-1.6 -2,-3.2c0.3,-0.7 0.8,-1.3 1.3,-1.8c1.4,-1.1 2.9,-2.1 4.4,-3.2c0.3,-0.2 0.6,-0.4 1,-0.7c-0.6,-0.2 -1.1,-0.3 -1.5,-0.4c-1.2,-0.4 -2.6,-0.7 -3.7,-1.2c-0.9,-0.4 -1.7,-1.2 -2.2,-1.9c-1.3,-1.8 -0.3,-3.8 1.8,-4.2c1.3,-0.2 2.5,0 3.7,0.5c1.5,0.6 3,1.4 4.6,2.2c0.1,-1.1 0.2,-2.1 0.3,-3.1c0.2,-2 0.8,-3.8 2.1,-5.4c1.4,-1.7 3.8,-1.5 4.8,0.5c0.3,0.6 0.5,1.3 0.5,2c0.1,2.4 -0.1,4.7 -1,7c0,0.5 -0.2,0.9 -0.4,1.4z" class="st18"/>
    </g>
    <ellipse id="svg_64" ry="3.6" rx="3.6" cy="108.5" cx="347.2" class="st16" transform="matrix(0.6788,-0.7343,0.7343,0.6788,31.8084,289.8065) "/>
   </g>
  </g>
 </g>
</svg>